<?xml version="1.0" encoding="UTF-8" standalone="no"?>
<!-- Created with Inkscape (http://www.inkscape.org/) -->

<svg
   xmlns:dc="http://purl.org/dc/elements/1.1/"
   xmlns:cc="http://creativecommons.org/ns#"
   xmlns:rdf="http://www.w3.org/1999/02/22-rdf-syntax-ns#"
   xmlns:svg="http://www.w3.org/2000/svg"
   xmlns="http://www.w3.org/2000/svg"
   xmlns:sodipodi="http://sodipodi.sourceforge.net/DTD/sodipodi-0.dtd"
   xmlns:inkscape="http://www.inkscape.org/namespaces/inkscape"
   width="31.793047mm"
   height="40.864475mm"
   viewBox="0 0 31.793047 40.864475"
   version="1.1"
   id="svg5155"
   inkscape:version="0.92.0 r15299"
   sodipodi:docname="Astudent_icon.svg">
  <defs
     id="defs5149" />
  <sodipodi:namedview
     id="base"
     pagecolor="#ffffff"
     bordercolor="#666666"
     borderopacity="1.0"
     inkscape:pageopacity="0.0"
     inkscape:pageshadow="2"
     inkscape:zoom="0.69044441"
     inkscape:cx="269.32485"
     inkscape:cy="-16.925167"
     inkscape:document-units="mm"
     inkscape:current-layer="layer1"
     showgrid="false"
     inkscape:window-width="1366"
     inkscape:window-height="745"
     inkscape:window-x="-8"
     inkscape:window-y="-8"
     inkscape:window-maximized="1" />
  <metadata
     id="metadata5152">
    <rdf:RDF>
      <cc:Work
         rdf:about="">
        <dc:format>image/svg+xml</dc:format>
        <dc:type
           rdf:resource="http://purl.org/dc/dcmitype/StillImage" />
        <dc:title></dc:title>
      </cc:Work>
    </rdf:RDF>
  </metadata>
  <g
     inkscape:label="Capa 1"
     inkscape:groupmode="layer"
     id="layer1"
     transform="translate(-0.19818265,-0.65851332)">
    <path
       style="fill:#0000ff;fill-opacity:1;stroke:#000000;stroke-width:2.73773456;stroke-linecap:round;stroke-linejoin:round;stroke-miterlimit:4;stroke-dasharray:none;stroke-opacity:1"
       d=""
       id="path5896"
       inkscape:connector-curvature="0"
       transform="scale(0.26458333)" />
    <path
       style="fill:#0000ff;fill-opacity:1;stroke:#000000;stroke-width:2.73773456;stroke-linecap:round;stroke-linejoin:round;stroke-miterlimit:4;stroke-dasharray:none;stroke-opacity:1"
       d=""
       id="path5926"
       inkscape:connector-curvature="0"
       transform="scale(0.26458333)" />
    <path
       style="fill:#0000ff;fill-opacity:1;stroke:#000000;stroke-width:2.73773456;stroke-linecap:round;stroke-linejoin:round;stroke-miterlimit:4;stroke-dasharray:none;stroke-opacity:1"
       d=""
       id="path5932"
       inkscape:connector-curvature="0"
       transform="scale(0.26458333)" />
    <path
       style="fill:#0000ff;fill-opacity:1;stroke:#000000;stroke-width:2.73773456;stroke-linecap:round;stroke-linejoin:round;stroke-miterlimit:4;stroke-dasharray:none;stroke-opacity:1"
       d=""
       id="path5934"
       inkscape:connector-curvature="0"
       transform="scale(0.26458333)" />
    <path
       style="fill:#0000ff;fill-opacity:1;stroke:#000000;stroke-width:2.73773456;stroke-linecap:round;stroke-linejoin:round;stroke-miterlimit:4;stroke-dasharray:none;stroke-opacity:1"
       d=""
       id="path5936"
       inkscape:connector-curvature="0"
       transform="scale(0.26458333)" />
    <path
       style="fill:#0000ff;fill-opacity:1;stroke:#000000;stroke-width:2.73773456;stroke-linecap:round;stroke-linejoin:round;stroke-miterlimit:4;stroke-dasharray:none;stroke-opacity:1"
       d=""
       id="path5938"
       inkscape:connector-curvature="0"
       transform="scale(0.26458333)" />
    <path
       style="fill:#0000ff;fill-opacity:1;stroke:#000000;stroke-width:2.73773456;stroke-linecap:round;stroke-linejoin:round;stroke-miterlimit:4;stroke-dasharray:none;stroke-opacity:1"
       d=""
       id="path5946"
       inkscape:connector-curvature="0"
       transform="scale(0.26458333)" />
    <path
       style="fill:#0000ff;fill-opacity:1;stroke:#000000;stroke-width:1.17979717;stroke-linecap:round;stroke-linejoin:round;stroke-miterlimit:4;stroke-dasharray:none;stroke-opacity:1"
       d=""
       id="path5948"
       inkscape:connector-curvature="0"
       transform="scale(0.26458333)" />
    <path
       style="fill:#0000ff;fill-opacity:1;stroke:#000000;stroke-width:1.17979717;stroke-linecap:round;stroke-linejoin:round;stroke-miterlimit:4;stroke-dasharray:none;stroke-opacity:1"
       d=""
       id="path5952"
       inkscape:connector-curvature="0"
       transform="scale(0.26458333)" />
    <g
       id="g4551"
       transform="translate(-28.128506,-40.430081)"
       inkscape:export-xdpi="96"
       inkscape:export-ydpi="96">
      <rect
         y="41.488094"
         x="28.726189"
         height="40.065475"
         width="30.994047"
         id="rect4485"
         style="fill:#fffffc;fill-opacity:1;stroke:#000000;stroke-width:0.79900002;stroke-linecap:round;stroke-linejoin:round;stroke-miterlimit:4;stroke-dasharray:none;stroke-opacity:1" />
      <path
         inkscape:connector-curvature="0"
         id="path4487"
         d="M 35.52976,55.851189 H 54.428572"
         style="fill:none;stroke:#000000;stroke-width:0;stroke-linecap:butt;stroke-linejoin:miter;stroke-miterlimit:4;stroke-dasharray:none;stroke-opacity:1" />
      <path
         inkscape:connector-curvature="0"
         id="path4489"
         d="M 35.52976,55.851189 H 54.428572"
         style="fill:none;stroke:#000000;stroke-width:0.26458332px;stroke-linecap:butt;stroke-linejoin:miter;stroke-opacity:1" />
      <path
         inkscape:connector-curvature="0"
         id="path4489-5"
         d="M 35.227331,73.238096 H 54.126042"
         style="fill:none;stroke:#000000;stroke-width:0.26458332px;stroke-linecap:butt;stroke-linejoin:miter;stroke-opacity:1" />
      <path
         inkscape:connector-curvature="0"
         id="path4489-3"
         d="m 35.076167,64.92262 h 18.89881"
         style="fill:none;stroke:#000000;stroke-width:0.26458332px;stroke-linecap:butt;stroke-linejoin:miter;stroke-opacity:1" />
    </g>
    <g
       id="g6002"
       transform="matrix(0.15114567,0,0,0.10194235,9.6068334,-4.9053816)">
      <path
         sodipodi:nodetypes="cc"
         inkscape:connector-curvature="0"
         id="path5704-4-6-3-2-3-5"
         d="m 101.57395,142.94022 c 0,0 -15.882211,13.40168 -13.595981,-7.36876"
         style="fill:none;stroke:#000000;stroke-width:0.56500006;stroke-linecap:butt;stroke-linejoin:miter;stroke-miterlimit:4;stroke-dasharray:none;stroke-opacity:1" />
      <ellipse
         ry="30.616072"
         rx="31.372023"
         cy="111.41369"
         cx="106.2113"
         id="path5700"
         style="fill:#ffd42a;fill-opacity:1;stroke:#000000;stroke-width:1.5;stroke-linecap:round;stroke-linejoin:round;stroke-miterlimit:4;stroke-dasharray:none;stroke-opacity:1" />
      <path
         sodipodi:nodetypes="cc"
         inkscape:connector-curvature="0"
         id="path5704-8"
         d="m 98.107459,81.349587 c 0,0 7.053541,-19.54729 15.458841,-0.41646"
         style="fill:none;stroke:#000000;stroke-width:0.56500006;stroke-linecap:butt;stroke-linejoin:miter;stroke-miterlimit:4;stroke-dasharray:none;stroke-opacity:1" />
      <path
         sodipodi:nodetypes="cc"
         inkscape:connector-curvature="0"
         id="path5704-4"
         d="m 75.507987,101.74674 c 0,0 -19.54729,7.05354 -0.41646,15.45884"
         style="fill:none;stroke:#000000;stroke-width:0.56500006;stroke-linecap:butt;stroke-linejoin:miter;stroke-miterlimit:4;stroke-dasharray:none;stroke-opacity:1" />
      <path
         sodipodi:nodetypes="cc"
         inkscape:connector-curvature="0"
         id="path5704-4-1"
         d="m 136.32234,102.93963 c 0,0 19.5474,7.05354 0.41647,15.45884"
         style="fill:none;stroke:#000000;stroke-width:0.56500006;stroke-linecap:butt;stroke-linejoin:miter;stroke-miterlimit:4;stroke-dasharray:none;stroke-opacity:1" />
      <path
         sodipodi:nodetypes="cc"
         inkscape:connector-curvature="0"
         id="path5704-4-6"
         d="m 78.448313,126.89381 c 0,0 -8.83441,18.80963 10.63657,11.22553"
         style="fill:none;stroke:#000000;stroke-width:0.56500006;stroke-linecap:butt;stroke-linejoin:miter;stroke-miterlimit:4;stroke-dasharray:none;stroke-opacity:1" />
      <path
         sodipodi:nodetypes="cc"
         inkscape:connector-curvature="0"
         id="path5704-4-6-9"
         d="m 90.049371,84.663307 c 0,0 -18.80963,-8.83441 -11.22553,10.63657"
         style="fill:none;stroke:#000000;stroke-width:0.56500006;stroke-linecap:butt;stroke-linejoin:miter;stroke-miterlimit:4;stroke-dasharray:none;stroke-opacity:1" />
      <path
         sodipodi:nodetypes="cc"
         inkscape:connector-curvature="0"
         id="path5704-4-6-3"
         d="m 132.78879,127.58299 c 0,0 8.83441,18.80963 -10.63657,11.22553"
         style="fill:none;stroke:#000000;stroke-width:0.56500006;stroke-linecap:butt;stroke-linejoin:miter;stroke-miterlimit:4;stroke-dasharray:none;stroke-opacity:1" />
      <path
         sodipodi:nodetypes="cc"
         inkscape:connector-curvature="0"
         id="path5704-4-6-3-7"
         d="m 132.78879,95.661135 c 0,0 8.83441,-18.80963 -10.63657,-11.22553"
         style="fill:none;stroke:#000000;stroke-width:0.56500006;stroke-linecap:butt;stroke-linejoin:miter;stroke-miterlimit:4;stroke-dasharray:none;stroke-opacity:1" />
      <path
         sodipodi:nodetypes="cc"
         inkscape:connector-curvature="0"
         id="path5704-4-6-3-2"
         d="m 112.26043,79.183513 c 0,0 15.88221,-13.40168 13.59598,7.36876"
         style="fill:none;stroke:#000000;stroke-width:0.56500006;stroke-linecap:butt;stroke-linejoin:miter;stroke-miterlimit:4;stroke-dasharray:none;stroke-opacity:1" />
      <path
         sodipodi:nodetypes="cc"
         inkscape:connector-curvature="0"
         id="path5704-4-6-3-2-9"
         d="m 110.74758,143.20407 c 0,0 15.88221,13.40168 13.59598,-7.36876"
         style="fill:none;stroke:#000000;stroke-width:0.56500006;stroke-linecap:butt;stroke-linejoin:miter;stroke-miterlimit:4;stroke-dasharray:none;stroke-opacity:1" />
      <path
         sodipodi:nodetypes="cc"
         inkscape:connector-curvature="0"
         id="path5704-4-6-3-2-3"
         d="m 100.7533,79.232919 c 0,0 -15.882216,-13.40168 -13.595986,7.36876"
         style="fill:none;stroke:#000000;stroke-width:0.56500006;stroke-linecap:butt;stroke-linejoin:miter;stroke-miterlimit:4;stroke-dasharray:none;stroke-opacity:1" />
      <path
         sodipodi:nodetypes="cc"
         inkscape:connector-curvature="0"
         id="path5704"
         d="m 98.992933,141.2001 c 0,0 7.053537,19.54729 15.458837,0.41646"
         style="fill:none;stroke:#000000;stroke-width:0.565;stroke-linecap:butt;stroke-linejoin:miter;stroke-miterlimit:4;stroke-dasharray:none;stroke-opacity:1" />
      <path
         sodipodi:nodetypes="cc"
         inkscape:connector-curvature="0"
         id="path5704-4-6-3-2-3-8"
         d="m 75.3787,113.97061 c 0,0 -17.05565,11.87243 3.59878,15.03988"
         style="fill:none;stroke:#000000;stroke-width:0.56500006;stroke-linecap:butt;stroke-linejoin:miter;stroke-miterlimit:4;stroke-dasharray:none;stroke-opacity:1" />
      <path
         sodipodi:nodetypes="cc"
         inkscape:connector-curvature="0"
         id="path5704-4-6-3-2-3-8-3"
         d="m 75.507987,109.15512 c 0,0 -17.05565,-11.872472 3.59878,-15.039922"
         style="fill:none;stroke:#000000;stroke-width:0.56500006;stroke-linecap:butt;stroke-linejoin:miter;stroke-miterlimit:4;stroke-dasharray:none;stroke-opacity:1" />
      <path
         sodipodi:nodetypes="cc"
         inkscape:connector-curvature="0"
         id="path5704-4-6-3-2-3-8-37"
         d="m 136.91674,113.60145 c 0,0 17.05565,11.87243 -3.59878,15.03988"
         style="fill:none;stroke:#000000;stroke-width:0.56500006;stroke-linecap:butt;stroke-linejoin:miter;stroke-miterlimit:4;stroke-dasharray:none;stroke-opacity:1" />
      <path
         sodipodi:nodetypes="cc"
         inkscape:connector-curvature="0"
         id="path5704-4-6-3-2-3-8-2"
         d="m 136.91674,109.11351 c 0,0 17.05565,-11.872426 -3.59878,-15.039876"
         style="fill:none;stroke:#000000;stroke-width:0.56500006;stroke-linecap:butt;stroke-linejoin:miter;stroke-miterlimit:4;stroke-dasharray:none;stroke-opacity:1" />
      <path
         transform="scale(0.26458333)"
         inkscape:connector-curvature="0"
         id="path5880"
         d="m 394.7887,561.95913 c -2.52909,-1.71857 -6.63239,-6.17278 -9.11845,-9.89826 -4.23697,-6.34932 -4.39352,-6.9414 -2.49924,-9.4527 1.85514,-2.45941 3.34074,-2.6857 18.11572,-2.75942 8.85217,-0.0442 18.67536,-0.69808 21.82932,-1.45313 3.15396,-0.75504 5.91594,-1.19134 6.13775,-0.96953 0.2218,0.2218 -0.27993,1.90273 -1.11495,3.7354 -1.48741,3.26452 -1.59165,3.28876 -5.13676,1.19461 -4.93946,-2.91781 -6.47833,-0.80498 -2.01296,2.76376 l 3.60754,2.88317 -4.30263,5.64113 c -8.67779,11.37734 -17.00402,14.09176 -25.50534,8.31497 z"
         style="fill:#0000ff;fill-opacity:1;stroke:#000000;stroke-width:2.73773456;stroke-linecap:round;stroke-linejoin:round;stroke-miterlimit:4;stroke-dasharray:none;stroke-opacity:1" />
      <path
         transform="scale(0.26458333)"
         inkscape:connector-curvature="0"
         id="path5882"
         d="m 445.58671,554.31181 c -6.82257,-2.16336 -16.29669,-7.09001 -15.78262,-8.20713 0.22594,-0.49098 1.21688,-2.97847 2.20209,-5.52776 1.55813,-4.03172 2.72548,-4.92798 8.96797,-6.88531 3.94716,-1.23763 9.77282,-3.54405 12.9459,-5.12538 5.0989,-2.54107 6.29059,-2.69236 10.25641,-1.30206 4.35403,1.52639 4.47751,1.75381 4.16155,7.66403 -0.49733,9.30304 -4.44471,17.04855 -9.83667,19.30145 -5.2988,2.21398 -6.17395,2.21955 -12.91463,0.0822 z"
         style="fill:#0000ff;fill-opacity:1;stroke:#000000;stroke-width:2.73773456;stroke-linecap:round;stroke-linejoin:round;stroke-miterlimit:4;stroke-dasharray:none;stroke-opacity:1" />
      <path
         transform="scale(0.26458333)"
         inkscape:connector-curvature="0"
         id="path5884"
         d="m 476.03543,527.75202 c -3.66962,-1.05957 -4.16667,-1.73399 -4.16667,-5.65361 0,-2.44778 0.5067,-4.45052 1.12599,-4.45052 1.76598,0 19.30573,-16.64751 24.62395,-23.37134 l 4.79604,-6.06366 2.07752,6.06366 c 2.98441,8.71062 3.87782,19.57997 2.0617,25.08288 -2.49286,7.55345 -6.56126,9.84653 -17.22989,9.7113 -5.01708,-0.0636 -10.99697,-0.65702 -13.28864,-1.31871 z"
         style="fill:#0000ff;fill-opacity:1;stroke:#000000;stroke-width:2.73773456;stroke-linecap:round;stroke-linejoin:round;stroke-miterlimit:4;stroke-dasharray:none;stroke-opacity:1" />
      <path
         transform="scale(0.26458333)"
         inkscape:connector-curvature="0"
         id="path5886"
         d="m 465.83016,524.31497 c -1.11927,-0.71132 -0.85142,-1.42312 0.96154,-2.55533 2.18271,-1.36313 2.51296,-1.23098 2.51296,1.00559 0,2.73187 -0.94863,3.15499 -3.4745,1.54974 z"
         style="fill:#0000ff;fill-opacity:1;stroke:#000000;stroke-width:2.73773456;stroke-linecap:round;stroke-linejoin:round;stroke-miterlimit:4;stroke-dasharray:none;stroke-opacity:1" />
      <path
         transform="scale(0.26458333)"
         inkscape:connector-curvature="0"
         id="path5888"
         d="m 510.42585,474.37866 c 2.8015,-5.46474 6.22515,-13.71917 7.6081,-18.34316 2.21632,-7.4104 3.06924,-8.67182 7.19323,-10.63841 4.56368,-2.17627 4.7508,-2.16346 7.60784,0.52058 4.32902,4.06691 8.58702,14.77919 7.62164,19.17454 -0.89193,4.06091 -5.84947,9.56162 -11.03354,12.2424 -3.08499,1.59531 -20.9583,6.97995 -23.16866,6.97995 -0.50724,0 1.36988,-4.47116 4.17139,-9.9359 z"
         style="fill:#0000ff;fill-opacity:1;stroke:#000000;stroke-width:2.73773456;stroke-linecap:round;stroke-linejoin:round;stroke-miterlimit:4;stroke-dasharray:none;stroke-opacity:1" />
      <path
         transform="scale(0.26458333)"
         inkscape:connector-curvature="0"
         id="path5890"
         d="m 526.5958,434.56492 c -3.15132,-3.28927 -3.44499,-4.46926 -3.44499,-13.84238 0,-10.24172 0.002,-10.24892 5.05912,-15.18667 4.92238,-4.80658 5.14529,-4.88362 8.24796,-2.85067 5.95492,3.90181 9.76985,10.26398 9.76985,16.2932 0,5.0732 -0.63297,6.18873 -7.02405,12.37898 -3.86323,3.74183 -7.50529,6.80333 -8.09348,6.80333 -0.58818,0 -2.61966,-1.61811 -4.51441,-3.59579 z"
         style="fill:#0000ff;fill-opacity:1;stroke:#000000;stroke-width:2.73773456;stroke-linecap:round;stroke-linejoin:round;stroke-miterlimit:4;stroke-dasharray:none;stroke-opacity:1" />
      <path
         transform="scale(0.26458333)"
         inkscape:connector-curvature="0"
         id="path5892"
         d="m 521.86876,439.28917 c 0,-4.00876 0.0509,-4.04389 2.56411,-1.76948 3.14648,2.84753 3.14648,2.80322 0,4.48717 -2.31504,1.23898 -2.56411,0.97499 -2.56411,-2.71769 z"
         style="fill:#0000ff;fill-opacity:1;stroke:#000000;stroke-width:2.73773456;stroke-linecap:round;stroke-linejoin:round;stroke-miterlimit:4;stroke-dasharray:none;stroke-opacity:1" />
      <path
         transform="scale(0.26458333)"
         inkscape:connector-curvature="0"
         id="path5894"
         d="m 521.86876,403.94544 c 0,-1.45404 -0.36611,-4.47429 -0.81359,-6.71166 l -0.81359,-4.06796 4.65975,2.22208 c 2.56286,1.22214 4.65974,2.58421 4.65974,3.02681 0,0.44261 -1.73077,2.46292 -3.84615,4.48959 -3.54816,3.39935 -3.84616,3.48002 -3.84616,1.04114 z"
         style="fill:#0000ff;fill-opacity:1;stroke:#000000;stroke-width:2.73773456;stroke-linecap:round;stroke-linejoin:round;stroke-miterlimit:4;stroke-dasharray:none;stroke-opacity:1" />
      <path
         transform="scale(0.26458333)"
         inkscape:connector-curvature="0"
         id="path5898"
         d="m 525.62631,391.97731 c -6.26755,-3.1805 -7.33968,-4.3007 -8.77516,-9.1686 -0.8994,-3.04999 -3.87213,-9.84053 -6.60606,-15.09008 -2.73394,-5.24956 -4.79394,-9.7215 -4.57779,-9.93765 0.70616,-0.70617 19.80517,4.54748 23.52519,6.47118 5.39657,2.79068 10.35788,8.23538 11.26417,12.36167 0.81887,3.72829 -3.25166,15.35514 -6.22841,17.7905 -0.95342,0.78002 -3.94593,-0.0643 -8.60194,-2.42702 z"
         style="fill:#0000ff;fill-opacity:1;stroke:#000000;stroke-width:2.73773456;stroke-linecap:round;stroke-linejoin:round;stroke-miterlimit:4;stroke-dasharray:none;stroke-opacity:1" />
      <path
         transform="scale(0.26458333)"
         inkscape:connector-curvature="0"
         id="path5900"
         d="m 496.94572,347.07137 c -2.7154,-3.56068 -8.27405,-9.47414 -12.35255,-13.14103 -7.39691,-6.6504 -7.41368,-6.68211 -6.70623,-12.68437 l 0.70922,-6.0173 6.78656,-0.84793 c 12.64359,-1.57971 20.88046,3.64052 22.04488,13.97127 0.6557,5.81737 -2.89258,25.19332 -4.61361,25.19332 -0.51214,0 -3.15286,-2.91329 -5.86827,-6.47396 z"
         style="fill:#0000ff;fill-opacity:1;stroke:#000000;stroke-width:2.73773456;stroke-linecap:round;stroke-linejoin:round;stroke-miterlimit:4;stroke-dasharray:none;stroke-opacity:1" />
      <path
         transform="scale(0.26458333)"
         inkscape:connector-curvature="0"
         id="path5902"
         d="m 453.92005,313.73067 c -3.87821,-1.95151 -10.62236,-4.59172 -14.987,-5.86714 -5.8725,-1.71603 -8.30162,-3.12204 -9.34313,-5.40789 -1.92018,-4.21434 0.34847,-6.49865 12.3373,-12.42244 13.02244,-6.43451 21.0005,-6.71059 26.18674,-0.90619 4.07115,4.55641 6.30126,11.29568 6.31176,19.07381 0.007,5.14195 -0.15186,5.34049 -5.44157,6.80346 -2.9968,0.82881 -6.02564,1.67966 -6.73077,1.89076 -0.70513,0.2111 -4.45513,-1.21286 -8.33333,-3.16437 z"
         style="fill:#0000ff;fill-opacity:1;stroke:#000000;stroke-width:2.73773456;stroke-linecap:round;stroke-linejoin:round;stroke-miterlimit:4;stroke-dasharray:none;stroke-opacity:1" />
      <path
         transform="scale(0.26458333)"
         inkscape:connector-curvature="0"
         id="path5904"
         d="m 469.64561,322.28103 -4.14623,-2.93342 4.46674,-1.37089 4.46675,-1.37088 v 4.36718 c 0,2.40195 -0.14423,4.33889 -0.32052,4.30431 -0.17628,-0.0346 -2.18631,-1.38291 -4.46674,-2.9963 z"
         style="fill:#0000ff;fill-opacity:1;stroke:#000000;stroke-width:2.73773456;stroke-linecap:round;stroke-linejoin:round;stroke-miterlimit:4;stroke-dasharray:none;stroke-opacity:1" />
      <path
         transform="scale(0.26458333)"
         inkscape:connector-curvature="0"
         id="path5906"
         d="m 374.4525,303.88099 c 0.0468,-2.32726 2.44094,-4.49588 4.21281,-3.81594 2.8788,1.1047 3.72754,-0.50923 1.53935,-2.92715 -1.73466,-1.91678 -1.44822,-2.81181 2.88182,-9.00464 5.78652,-8.27589 14.52655,-13.45955 20.2653,-12.01922 5.1775,1.29947 14.58098,11.27867 19.42161,20.61068 l 4.10975,7.92298 -4.75078,-0.8717 c -6.42738,-1.17933 -35.48872,-1.10712 -42.25078,0.10499 -2.99679,0.53718 -5.43988,0.53718 -5.42908,0 z"
         style="fill:#0000ff;fill-opacity:1;stroke:#000000;stroke-width:2.73773456;stroke-linecap:round;stroke-linejoin:round;stroke-miterlimit:4;stroke-dasharray:none;stroke-opacity:1" />
      <path
         transform="scale(0.26458333)"
         inkscape:connector-curvature="0"
         id="path5908"
         d="m 334.36876,315.98196 c -3.26167,-1.28884 -3.52353,-1.92655 -3.49748,-8.51746 0.0324,-8.1951 3.38057,-16.67198 7.81068,-19.77494 4.97766,-3.4865 13.51386,-2.64673 23.95386,2.35651 5.10646,2.4472 9.60308,5.27975 9.99249,6.29454 0.38942,1.0148 -0.18804,3.57788 -1.28323,5.69575 -1.48844,2.87833 -3.69707,4.40941 -8.74661,6.06338 -3.71544,1.217 -10.0562,3.86319 -14.09058,5.88043 -7.94057,3.9704 -8.83629,4.09721 -14.13913,2.00179 z"
         style="fill:#0000ff;fill-opacity:1;stroke:#000000;stroke-width:2.73773456;stroke-linecap:round;stroke-linejoin:round;stroke-miterlimit:4;stroke-dasharray:none;stroke-opacity:1" />
      <path
         transform="scale(0.26458333)"
         inkscape:connector-curvature="0"
         id="path5910"
         d="m 330.84312,321.50491 c 0,-1.41623 0.83134,-2.57497 1.84742,-2.57497 2.9779,0 3.31672,1.92487 0.63376,3.60041 -2.14429,1.33914 -2.48118,1.19991 -2.48118,-1.02544 z"
         style="fill:#0000ff;fill-opacity:1;stroke:#000000;stroke-width:2.73773456;stroke-linecap:round;stroke-linejoin:round;stroke-miterlimit:4;stroke-dasharray:none;stroke-opacity:1" />
      <path
         transform="scale(0.26458333)"
         inkscape:connector-curvature="0"
         id="path5912"
         d="m 297.66669,353.09336 c -0.88868,-1.07079 -2.51838,-6.52837 -3.62155,-12.12794 -1.73652,-8.81432 -1.76768,-10.91837 -0.2321,-15.67353 2.50226,-7.74867 7.17824,-10.85549 16.29076,-10.8239 4.00278,0.0139 9.44125,0.47271 12.08548,1.01963 4.48712,0.9281 4.80769,1.30389 4.80769,5.63584 0,4.08785 -1.1228,5.72473 -9.41373,13.72396 -5.17756,4.99539 -11.41332,11.58234 -13.85725,14.63768 -3.84173,4.80283 -4.66234,5.29149 -6.0593,3.60826 z"
         style="fill:#0000ff;fill-opacity:1;stroke:#000000;stroke-width:2.73773456;stroke-linecap:round;stroke-linejoin:round;stroke-miterlimit:4;stroke-dasharray:none;stroke-opacity:1" />
      <path
         transform="scale(0.26458333)"
         inkscape:connector-curvature="0"
         id="path5914"
         d="m 263.92943,385.97779 c -4.03789,-9.12832 -0.7981,-15.87832 10.3143,-21.48953 8.71616,-4.40123 22.88364,-7.50144 21.77033,-4.76391 -0.23504,0.57795 -2.65424,5.91448 -5.376,11.85897 l -4.94865,10.80816 -9.63348,4.6111 -9.63348,4.6111 z"
         style="fill:#0000ff;fill-opacity:1;stroke:#000000;stroke-width:2.73773456;stroke-linecap:round;stroke-linejoin:round;stroke-miterlimit:4;stroke-dasharray:none;stroke-opacity:1" />
      <path
         transform="scale(0.26458333)"
         inkscape:connector-curvature="0"
         id="path5916"
         d="m 274.67876,400.59075 c -4.29462,-4.3759 -5.13401,-5.89498 -3.83374,-6.93808 2.24757,-1.80305 12.74432,-7.05676 13.07257,-6.54294 0.14403,0.22548 -0.63861,4.61152 -1.73922,9.74677 l -2.0011,9.33682 z"
         style="fill:#0000ff;fill-opacity:1;stroke:#000000;stroke-width:2.73773456;stroke-linecap:round;stroke-linejoin:round;stroke-miterlimit:4;stroke-dasharray:none;stroke-opacity:1" />
      <path
         transform="scale(0.26458333)"
         inkscape:connector-curvature="0"
         id="path5918"
         d="m 267.90441,432.30637 c -16.02436,-10.64008 -18.05974,-20.80609 -6.38757,-31.90367 l 3.97955,-3.78365 7.03234,6.94498 7.03234,6.94499 v 11.06304 c 0,9.11896 -0.41503,11.43864 -2.36179,13.20043 -2.22497,2.01357 -2.76345,1.8707 -9.29487,-2.46612 z"
         style="fill:#0000ff;fill-opacity:1;stroke:#000000;stroke-width:2.73773456;stroke-linecap:round;stroke-linejoin:round;stroke-miterlimit:4;stroke-dasharray:none;stroke-opacity:1" />
      <path
         transform="scale(0.26458333)"
         inkscape:connector-curvature="0"
         id="path5920"
         d="m 282.12517,482.31006 c -14.52816,-4.59803 -21.72477,-12.28709 -20.01756,-21.38732 0.48296,-2.5744 3.47459,-8.13481 6.64807,-12.35646 5.41887,-7.2087 5.98434,-7.60101 9.29324,-6.44752 3.00997,1.04928 3.8537,2.51083 5.7911,10.03163 1.2473,4.84186 4.25403,12.94794 6.68164,18.0135 3.4705,7.24173 4.13127,9.73805 3.09176,11.68038 -1.54101,2.87941 -3.59846,2.96283 -11.48825,0.46579 z"
         style="fill:#0000ff;fill-opacity:1;stroke:#000000;stroke-width:2.73773456;stroke-linecap:round;stroke-linejoin:round;stroke-miterlimit:4;stroke-dasharray:none;stroke-opacity:1" />
      <path
         transform="scale(0.26458333)"
         inkscape:connector-curvature="0"
         id="path5922"
         d="m 295.45851,522.26327 c -4.04995,-4.04994 -4.35722,-4.93613 -4.33425,-12.5 0.0304,-10.01228 2.79536,-21.11509 5.1234,-20.57335 0.9175,0.21351 2.03981,-0.21312 2.49403,-0.94807 0.45845,-0.74178 2.91691,1.40572 5.52613,4.82715 4.99575,6.55086 17.08945,18.42695 23.2116,22.79396 3.09249,2.20591 3.46794,3.04077 2.32657,5.17344 -1.67242,3.12496 -11.4818,5.58585 -22.2658,5.58585 -7.07329,0 -8.08927,-0.36656 -12.08168,-4.35898 z"
         style="fill:#0000ff;fill-opacity:1;stroke:#000000;stroke-width:2.73773456;stroke-linecap:round;stroke-linejoin:round;stroke-miterlimit:4;stroke-dasharray:none;stroke-opacity:1" />
      <path
         transform="scale(0.26458333)"
         inkscape:connector-curvature="0"
         id="path5924"
         d="m 344.94569,553.98895 c -6.41566,-2.56879 -11.53847,-13.08639 -11.53847,-23.68954 0,-7.60535 2.58032,-8.04322 14.22202,-2.41343 5.47112,2.64578 13.69609,5.8252 18.27769,7.06538 6.82893,1.84851 8.47042,2.81361 9.10831,5.35518 1.05337,4.19698 0.71218,4.55718 -8.71101,9.1962 -8.11209,3.99357 -17.60766,5.98805 -21.35854,4.48621 z"
         style="fill:#0000ff;fill-opacity:1;stroke:#000000;stroke-width:2.73773456;stroke-linecap:round;stroke-linejoin:round;stroke-miterlimit:4;stroke-dasharray:none;stroke-opacity:1" />
      <path
         transform="scale(0.26458333)"
         inkscape:connector-curvature="0"
         id="path5928"
         d="m 296.22774,484.23889 c 0,-0.74674 0.57692,-1.00115 1.28205,-0.56536 0.70513,0.43579 1.28205,1.04677 1.28205,1.35772 0,0.31094 -0.57692,0.56536 -1.28205,0.56536 -0.70513,0 -1.28205,-0.61097 -1.28205,-1.35772 z"
         style="fill:#0000ff;fill-opacity:1;stroke:#000000;stroke-width:2.73773456;stroke-linecap:round;stroke-linejoin:round;stroke-miterlimit:4;stroke-dasharray:none;stroke-opacity:1" />
      <path
         transform="scale(0.26458333)"
         inkscape:connector-curvature="0"
         id="path5930"
         d="m 278.92005,438.16071 c 0.43579,-0.70513 1.04676,-1.28205 1.35771,-1.28205 0.31095,0 0.56536,0.57692 0.56536,1.28205 0,0.70513 -0.61097,1.28205 -1.35771,1.28205 -0.74674,0 -1.00116,-0.57692 -0.56536,-1.28205 z"
         style="fill:#0000ff;fill-opacity:1;stroke:#000000;stroke-width:2.73773456;stroke-linecap:round;stroke-linejoin:round;stroke-miterlimit:4;stroke-dasharray:none;stroke-opacity:1" />
      <path
         inkscape:connector-curvature="0"
         id="path5940"
         d="m 91.266879,146.57624 c 0,0 4.050962,23.55944 -24.103419,46.28647 l 17.9781,-4.74893 5.42735,17.9781 c 0,0 15.89887,-19.49588 13.8856,-57.40686 0,0 1.37882,61.81658 9.85906,73.01049 l 4.74893,-17.63889 19.33494,18.31731 c 0,0 -24.38398,-43.21671 -20.50262,-75.71225"
         style="fill:none;stroke:#000000;stroke-width:0.26458332px;stroke-linecap:butt;stroke-linejoin:miter;stroke-opacity:1" />
      <path
         transform="scale(0.26458333)"
         inkscape:connector-curvature="0"
         id="path5942"
         d="m 339.46147,765.58483 c -1.825,-5.90188 -6.32381,-20.82683 -9.99737,-33.16657 -3.67356,-12.33974 -6.7411,-22.52538 -6.81676,-22.63474 -0.0756,-0.10937 -13.9837,3.48846 -30.90678,7.99518 -16.92308,4.50671 -31.02351,8.20197 -31.3343,8.21166 -0.31079,0.0103 5.88554,-6.08375 13.76964,-13.54102 15.135,-14.31563 31.36529,-33.52489 41.03181,-48.56295 19.43709,-30.23799 31.02003,-65.50824 31.02003,-94.45658 v -11.37052 h 3.80135 c 5.24834,0 14.90722,-3.39273 22.06982,-7.75213 l 5.99938,-3.65143 4.06806,6.33952 c 2.23744,3.48674 5.79749,7.79474 7.91122,9.57334 l 3.84317,3.2338 -0.0696,24.18271 c -0.15614,54.28721 -9.26503,100.93224 -28.36258,145.24015 -4.9699,11.53058 -16.33129,32.73297 -20.39026,38.05188 l -2.31863,3.03835 z"
         style="fill:#0000ff;fill-opacity:1;stroke:#000000;stroke-width:4.24818897;stroke-linecap:round;stroke-linejoin:round;stroke-miterlimit:4;stroke-dasharray:none;stroke-opacity:1" />
      <path
         transform="scale(0.26458333)"
         inkscape:connector-curvature="0"
         id="path5944"
         d="m 427.28402,826.34486 c -10.63287,-23.31684 -19.12967,-73.42859 -25.27331,-149.0548 -2.00029,-24.62299 -5.75699,-91.88232 -5.77351,-103.36816 l -0.009,-6.57329 5.55677,0.62633 c 3.59168,0.40484 6.90224,-0.0694 9.36138,-1.3411 4.01996,-2.0788 13.7906,-12.0085 14.80213,-15.0431 0.47356,-1.42066 2.39972,-1.00158 9.27123,2.01715 l 8.67348,3.81037 -0.69968,13.42323 c -3.27527,62.83537 22.61004,158.50236 66.73729,246.64785 3.83197,7.65446 6.78125,14.10319 6.55395,14.33049 -0.22729,0.22729 -15.32332,-13.71515 -33.54673,-30.98318 -18.2234,-17.26806 -33.29969,-31.21677 -33.50286,-30.99717 -0.20317,0.21961 -4.23867,14.82237 -8.96779,32.45058 -4.72911,17.6282 -8.7403,32.20287 -8.91376,32.38814 -0.17345,0.18527 -2.09456,-3.56473 -4.26913,-8.33334 z"
         style="fill:#0000ff;fill-opacity:1;stroke:#000000;stroke-width:4.24818897;stroke-linecap:round;stroke-linejoin:round;stroke-miterlimit:4;stroke-dasharray:none;stroke-opacity:1" />
      <path
         transform="scale(0.26458333)"
         inkscape:connector-curvature="0"
         id="path5950"
         d="m 378.38022,540.02169 c -0.5227,-1.09613 -0.86511,-2.07823 -0.76089,-2.18244 0.10422,-0.10422 2.04167,0.14828 4.30545,0.56111 2.26378,0.41283 3.61872,0.80694 3.01099,0.8758 -0.60773,0.0689 -1.30298,0.0919 -1.54499,0.0512 -0.24201,-0.0407 -1.25455,0.5473 -2.2501,1.30664 l -1.81008,1.38062 z"
         style="fill:#0000ff;fill-opacity:1;stroke:#000000;stroke-width:1.17979717;stroke-linecap:round;stroke-linejoin:round;stroke-miterlimit:4;stroke-dasharray:none;stroke-opacity:1" />
      <path
         transform="scale(0.26458333)"
         inkscape:connector-curvature="0"
         id="path5954"
         d="m 333.27831,520.70311 c 0,-0.58261 0.30045,-0.77255 0.87392,-0.55249 0.48065,0.18445 0.99256,0.33536 1.13758,0.33536 0.14501,0 0.11,0.24861 -0.0778,0.55248 -0.54406,0.88032 -1.9337,0.63932 -1.9337,-0.33535 z"
         style="fill:#0000ff;fill-opacity:1;stroke:#000000;stroke-width:1.17979717;stroke-linecap:round;stroke-linejoin:round;stroke-miterlimit:4;stroke-dasharray:none;stroke-opacity:1" />
    </g>
  </g>
</svg>
